<svg xmlns="http://www.w3.org/2000/svg" xmlns:svg="http://www.w3.org/2000/svg" id="svg5" width="46.25" height="23.75" version="1.1" viewBox="0 0 12.237 6.284"><g id="layer1" transform="translate(-91.777344,-47.12891)"><rect style="fill:#ff2a2a;fill-rule:evenodd;stroke-width:.0211535" id="rect153" width="1.323" height="2.977" x="91.777" y="48.783"/><rect style="fill:#ff2a2a;stroke-width:.0162915" id="rect177" width="10.914" height=".661" x="93.1" y="47.129"/><rect style="fill:#ff2a2a;stroke-width:.0165364" id="rect179" width=".661" height="4.961" x="93.1" y="47.79"/><rect style="fill:#ff2a2a;stroke-width:.0162915" id="rect181" width="10.914" height=".661" x="93.1" y="52.751"/><rect style="fill:#ff2a2a;stroke-width:.0165364" id="rect183" width=".661" height="4.961" x="103.353" y="47.79"/><rect style="fill:#fff;stroke-width:.0162585" id="rect318" width="9.591" height=".496" x="93.762" y="47.79"/><rect style="fill:#fff;stroke-width:.0158876" id="rect408" width=".496" height="3.969" x="93.762" y="48.286"/><rect style="fill:#fff;stroke-width:.015706" id="rect410" width="9.591" height=".496" x="93.762" y="52.255"/><rect style="fill:#fff;stroke-width:.0158876" id="rect412" width=".496" height="3.969" x="102.857" y="48.286"/><rect style="fill:#fff;stroke-width:.0224686" id="rect414" width=".661" height="3.969" x="95.911" y="48.286"/><rect style="fill:#fff;stroke-width:.0158876" id="rect414-3" width=".661" height="3.969" x="98.227" y="48.286"/><rect style="fill:#fff;stroke-width:.0158876" id="rect414-6" width=".661" height="3.969" x="100.542" y="48.286"/><rect style="fill:#999;stroke-width:.0165364" id="rect1736" width="1.654" height="3.969" x="94.258" y="48.286"/><rect style="fill:#999;stroke-width:.0165364" id="rect1738" width="1.654" height="3.969" x="96.573" y="48.286"/><rect style="fill:#999;stroke-width:.0165364" id="rect1740" width="1.654" height="3.969" x="98.888" y="48.286"/><rect style="fill:#ff2a2a;stroke-width:.0165364" id="rect1742" width="1.654" height="3.969" x="101.203" y="48.286"/></g></svg>